<?xml version="1.0" encoding="utf-8"?>
<?xml-stylesheet type="text/xsl" href="rss1.xsl"?>
<rss version="2.0" xmlns:atom="http://www.w3.org/2005/Atom" xmlns:content="http://purl.org/rss/1.0/modules/content/" xmlns:dc="http://purl.org/dc/elements/1.1/" xmlns:media="http://search.yahoo.com/mrss/">
<channel>
 <title>Getty</title>
 <link>http://www.gettyimg.com/</link>
 <atom:link href="http://www.gettyimg.com/" rel="self" type="application/rss+xml" />

 
                <item>
                <title><![CDATA[【HD Live Performances】HDTV - The 48th Annual Grammy Awards 2006 HDTV 720p x264-SiLU]]></title>
                <link><![CDATA[https://sharemania.us/threads/the-48th-annual-grammy-awards-2006-hdtv-720p-x264-silu.229729/]]></link>
                <description><![CDATA[<article>
<blockquote class="messageText SelectQuoteContainer ugc baseHtml">
<div style="text-align: center"><img src="https://i.imgur.com/2594Rd7.png" class="bbCodeImage LbImage" alt="[​IMG]" data-url="https://i.imgur.com/2594Rd7.png" style=""> <br>
<br>
<img src="https://i.imgur.com/5KrtDaS.png" class="bbCodeImage LbImage" alt="[​IMG]" data-url="https://i.imgur.com/5KrtDaS.png" style=""> <br>
<br>
<img src="https://i.imgur.com/AqQyXfC.png" class="bbCodeImage LbImage" alt="[​IMG]" data-url="https://i.imgur.com/AqQyXfC.png" style=""> <br>
<br>
<img src="https://i.imgur.com/02gFytU.png" class="bbCodeImage LbImage" alt="[​IMG]" data-url="https://i.imgur.com/02gFytU.png" style=""> <br>
<br>
<img src="https://i.imgur.com/dEo2PNF.png" class="bbCodeImage LbImage" alt="[​IMG]" data-url="https://i.imgur.com/dEo2PNF.png" style=""> <br>
<br>
<img src="https://i.imgur.com/w8afvMU.png" class="bbCodeImage LbImage" alt="[​IMG]" data-url="https://i.imgur.com/w8afvMU.png" style=""> <br>
<br>
<img src="https://i.imgur.com/LvrCXGs.png" class="bbCodeImage LbImage" alt="[​IMG]" data-url="https://i.imgur.com/LvrCXGs.png" style=""> <br>
<br>
<img src="https://i.imgur.com/zeHDM3s.png" class="bbCodeImage LbImage" alt="[​IMG]" data-url="https://i.imgur.com/zeHDM3s.png" style=""> <br>
<br>
<img src="https://i.imgur.com/9A9FRA5.png" class="bbCodeImage LbImage" alt="[​IMG]" data-url="https://i.imgur.com/9A9FRA5.png" style=""> <br>
<br>
<div class="ToggleTriggerAnchor bbCodeSpoilerContainer">
<button type="button" class="button bbCodeSpoilerButton ToggleTrigger Tooltip JsOnly" data-target="> .SpoilerTarget"><span>Spoiler: <span class="SpoilerTitle">MediaInfo</span></span></button>
<div class="SpoilerTarget bbCodeSpoilerText">Video<br>
ID : 1<br>
Format : AVC<br>
Format/Info : Advanced Video Codec<br>
Format profile : Main@L5.1<br>
Format settings : CABAC / 1 Ref Frames<br>
Format settings, CABAC : Yes<br>
Format settings, Reference fra : 1 frame<br>
Format settings, GOP : N=1<br>
Codec ID : V_MPEG4/ISO/AVC<br>
Duration : 2 h 32 min<br>
Bit rate : 3 650 kb/s<br>
Width : 1 280 pixels<br>
Height : 720 pixels<br>
Display aspect ratio : 16:9<br>
Frame rate mode : Constant<br>
Frame rate : 23.976 (23976/1000) FPS<br>
Color space : YUV<br>
Chroma subsampling : 4:2:0<br>
Bit depth : 8 bits<br>
Scan type : Progressive<br>
Bits/(Pixel*Frame) : 0.165<br>
Stream size : 3.80 GiB (88%)<br>
Writing library : x264 core 44 svn-439<br>
Language : English<br>
Default : Yes<br>
Forced : No<br>
<br>
Audio<br>
ID : 2<br>
Format : AC-3<br>
Format/Info : Audio Coding 3<br>
Commercial name : Dolby Digital<br>
Codec ID : A_AC3<br>
Duration : 2 h 32 min<br>
Bit rate mode : Constant<br>
Bit rate : 384 kb/s<br>
Channel(s) : 6 channels<br>
Channel layout : L R C LFE Ls Rs<br>
Sampling rate : 48.0 kHz<br>
Frame rate : 31.250 FPS (1536 SPF)<br>
Compression mode : Lossy<br>
Stream size : 418 MiB (10%)<br>
Service kind : Complete Main<br>
Default : Yes<br>
Forced : No</div>
</div><br>
<div class="bbCodeBlock bbCodeVfcHH HiddenContent">
<div class="attribution type">Hidden Content:</div>
<blockquote>You must reply before you can see the hidden data contained here.</blockquote>
</div></div>
<div class="messageTextEndMarker">&nbsp;</div>
</blockquote>
</article>]]></description>
                <author><![CDATA[Carlos]]></author>
                </item>

                </channel></rss>